<mxfile host="app.diagrams.net" modified="2021-11-10T07:03:47.280Z" agent="5.0 (Windows NT 10.0; Win64; x64) AppleWebKit/537.36 (KHTML, like Gecko) Chrome/95.0.4638.69 Safari/537.36" etag="FYktXqWr7_6pR2KZRA63" version="15.7.1" type="github">
  <diagram id="gYImr5GBV7Ynimy5AUos" name="Page-1">
    <mxGraphModel dx="1117" dy="1723" grid="1" gridSize="10" guides="1" tooltips="1" connect="1" arrows="1" fold="1" page="1" pageScale="1" pageWidth="850" pageHeight="1100" math="0" shadow="0">
      <root>
        <mxCell id="0" />
        <mxCell id="1" parent="0" />
        <mxCell id="ULLz7wTdWmbjTnIx4xGf-33" value="" style="edgeStyle=orthogonalEdgeStyle;rounded=0;orthogonalLoop=1;jettySize=auto;html=1;" edge="1" parent="1" source="ULLz7wTdWmbjTnIx4xGf-1" target="ULLz7wTdWmbjTnIx4xGf-32">
          <mxGeometry relative="1" as="geometry" />
        </mxCell>
        <mxCell id="ULLz7wTdWmbjTnIx4xGf-1" value="START" style="ellipse;whiteSpace=wrap;html=1;" vertex="1" parent="1">
          <mxGeometry x="290" y="-150" width="120" height="80" as="geometry" />
        </mxCell>
        <mxCell id="ULLz7wTdWmbjTnIx4xGf-6" value="" style="edgeStyle=orthogonalEdgeStyle;rounded=0;orthogonalLoop=1;jettySize=auto;html=1;" edge="1" parent="1" source="ULLz7wTdWmbjTnIx4xGf-2" target="ULLz7wTdWmbjTnIx4xGf-5">
          <mxGeometry relative="1" as="geometry" />
        </mxCell>
        <mxCell id="ULLz7wTdWmbjTnIx4xGf-2" value="Take input from user&lt;br&gt;" style="rounded=0;whiteSpace=wrap;html=1;" vertex="1" parent="1">
          <mxGeometry x="290" y="130" width="120" height="60" as="geometry" />
        </mxCell>
        <mxCell id="ULLz7wTdWmbjTnIx4xGf-8" style="edgeStyle=orthogonalEdgeStyle;rounded=0;orthogonalLoop=1;jettySize=auto;html=1;entryX=0.5;entryY=0;entryDx=0;entryDy=0;" edge="1" parent="1" source="ULLz7wTdWmbjTnIx4xGf-5" target="ULLz7wTdWmbjTnIx4xGf-7">
          <mxGeometry relative="1" as="geometry" />
        </mxCell>
        <mxCell id="ULLz7wTdWmbjTnIx4xGf-9" value="YES" style="edgeLabel;html=1;align=center;verticalAlign=middle;resizable=0;points=[];" vertex="1" connectable="0" parent="ULLz7wTdWmbjTnIx4xGf-8">
          <mxGeometry x="-0.0944" y="8" relative="1" as="geometry">
            <mxPoint x="-14" as="offset" />
          </mxGeometry>
        </mxCell>
        <mxCell id="ULLz7wTdWmbjTnIx4xGf-12" style="edgeStyle=orthogonalEdgeStyle;rounded=0;orthogonalLoop=1;jettySize=auto;html=1;entryX=0.5;entryY=0;entryDx=0;entryDy=0;" edge="1" parent="1" source="ULLz7wTdWmbjTnIx4xGf-5" target="ULLz7wTdWmbjTnIx4xGf-10">
          <mxGeometry relative="1" as="geometry" />
        </mxCell>
        <mxCell id="ULLz7wTdWmbjTnIx4xGf-24" value="NO" style="edgeLabel;html=1;align=center;verticalAlign=middle;resizable=0;points=[];" vertex="1" connectable="0" parent="ULLz7wTdWmbjTnIx4xGf-12">
          <mxGeometry x="-0.4467" y="-5" relative="1" as="geometry">
            <mxPoint y="-10" as="offset" />
          </mxGeometry>
        </mxCell>
        <mxCell id="ULLz7wTdWmbjTnIx4xGf-5" value="if letter is present in&lt;br&gt;&amp;nbsp;word" style="rhombus;whiteSpace=wrap;html=1;" vertex="1" parent="1">
          <mxGeometry x="305" y="220" width="90" height="90" as="geometry" />
        </mxCell>
        <mxCell id="ULLz7wTdWmbjTnIx4xGf-15" value="" style="edgeStyle=orthogonalEdgeStyle;rounded=0;orthogonalLoop=1;jettySize=auto;html=1;" edge="1" parent="1" source="ULLz7wTdWmbjTnIx4xGf-7" target="ULLz7wTdWmbjTnIx4xGf-14">
          <mxGeometry relative="1" as="geometry" />
        </mxCell>
        <mxCell id="ULLz7wTdWmbjTnIx4xGf-7" value="Display all chosen letters in the word." style="rounded=0;whiteSpace=wrap;html=1;" vertex="1" parent="1">
          <mxGeometry x="520" y="320" width="120" height="60" as="geometry" />
        </mxCell>
        <mxCell id="ULLz7wTdWmbjTnIx4xGf-17" value="" style="edgeStyle=orthogonalEdgeStyle;rounded=0;orthogonalLoop=1;jettySize=auto;html=1;" edge="1" parent="1" source="ULLz7wTdWmbjTnIx4xGf-10" target="ULLz7wTdWmbjTnIx4xGf-16">
          <mxGeometry relative="1" as="geometry" />
        </mxCell>
        <mxCell id="ULLz7wTdWmbjTnIx4xGf-10" value="reduce the number of allowable wrong steps" style="rounded=0;whiteSpace=wrap;html=1;" vertex="1" parent="1">
          <mxGeometry x="100" y="320" width="120" height="60" as="geometry" />
        </mxCell>
        <mxCell id="ULLz7wTdWmbjTnIx4xGf-23" style="edgeStyle=orthogonalEdgeStyle;rounded=0;orthogonalLoop=1;jettySize=auto;html=1;entryX=0.5;entryY=0;entryDx=0;entryDy=0;" edge="1" parent="1" source="ULLz7wTdWmbjTnIx4xGf-14" target="ULLz7wTdWmbjTnIx4xGf-20">
          <mxGeometry relative="1" as="geometry" />
        </mxCell>
        <mxCell id="ULLz7wTdWmbjTnIx4xGf-14" value="Is word&lt;br&gt;Complete" style="rhombus;whiteSpace=wrap;html=1;" vertex="1" parent="1">
          <mxGeometry x="540" y="430" width="80" height="80" as="geometry" />
        </mxCell>
        <mxCell id="ULLz7wTdWmbjTnIx4xGf-28" style="edgeStyle=orthogonalEdgeStyle;rounded=0;orthogonalLoop=1;jettySize=auto;html=1;entryX=0.5;entryY=0;entryDx=0;entryDy=0;" edge="1" parent="1" source="ULLz7wTdWmbjTnIx4xGf-16" target="ULLz7wTdWmbjTnIx4xGf-27">
          <mxGeometry relative="1" as="geometry" />
        </mxCell>
        <mxCell id="ULLz7wTdWmbjTnIx4xGf-31" style="edgeStyle=orthogonalEdgeStyle;rounded=0;orthogonalLoop=1;jettySize=auto;html=1;" edge="1" parent="1" source="ULLz7wTdWmbjTnIx4xGf-16">
          <mxGeometry relative="1" as="geometry">
            <mxPoint x="350" y="106" as="targetPoint" />
            <Array as="points">
              <mxPoint x="60" y="470" />
              <mxPoint x="60" y="106" />
            </Array>
          </mxGeometry>
        </mxCell>
        <mxCell id="ULLz7wTdWmbjTnIx4xGf-16" value="Are All &lt;br&gt;steps&lt;br&gt;Exhausted" style="rhombus;whiteSpace=wrap;html=1;" vertex="1" parent="1">
          <mxGeometry x="120" y="430" width="80" height="80" as="geometry" />
        </mxCell>
        <mxCell id="ULLz7wTdWmbjTnIx4xGf-20" value="User Wins! Game over" style="rounded=0;whiteSpace=wrap;html=1;" vertex="1" parent="1">
          <mxGeometry x="395" y="530" width="120" height="60" as="geometry" />
        </mxCell>
        <mxCell id="ULLz7wTdWmbjTnIx4xGf-21" value="YES" style="edgeLabel;html=1;align=center;verticalAlign=middle;resizable=0;points=[];" vertex="1" connectable="0" parent="1">
          <mxGeometry x="650" y="470" as="geometry">
            <mxPoint x="-190" y="-9" as="offset" />
          </mxGeometry>
        </mxCell>
        <mxCell id="ULLz7wTdWmbjTnIx4xGf-25" value="NO" style="text;html=1;align=center;verticalAlign=middle;resizable=0;points=[];autosize=1;strokeColor=none;fillColor=none;" vertex="1" parent="1">
          <mxGeometry x="645" y="450" width="30" height="20" as="geometry" />
        </mxCell>
        <mxCell id="ULLz7wTdWmbjTnIx4xGf-26" value="" style="endArrow=classic;html=1;rounded=0;exitX=1;exitY=0.5;exitDx=0;exitDy=0;" edge="1" parent="1" source="ULLz7wTdWmbjTnIx4xGf-14">
          <mxGeometry width="50" height="50" relative="1" as="geometry">
            <mxPoint x="680" y="490" as="sourcePoint" />
            <mxPoint x="350" y="110" as="targetPoint" />
            <Array as="points">
              <mxPoint x="730" y="470" />
              <mxPoint x="730" y="110" />
              <mxPoint x="530" y="110" />
            </Array>
          </mxGeometry>
        </mxCell>
        <mxCell id="ULLz7wTdWmbjTnIx4xGf-27" value="User Loses!&amp;nbsp; Game Over." style="rounded=0;whiteSpace=wrap;html=1;" vertex="1" parent="1">
          <mxGeometry x="220" y="530" width="120" height="60" as="geometry" />
        </mxCell>
        <mxCell id="ULLz7wTdWmbjTnIx4xGf-29" value="&lt;span style=&quot;color: rgb(0, 0, 0); font-family: helvetica; font-size: 11px; font-style: normal; font-weight: 400; letter-spacing: normal; text-align: center; text-indent: 0px; text-transform: none; word-spacing: 0px; background-color: rgb(255, 255, 255); display: inline; float: none;&quot;&gt;YES&lt;/span&gt;" style="text;whiteSpace=wrap;html=1;" vertex="1" parent="1">
          <mxGeometry x="230" y="445" width="50" height="30" as="geometry" />
        </mxCell>
        <mxCell id="ULLz7wTdWmbjTnIx4xGf-30" value="NO" style="text;html=1;align=center;verticalAlign=middle;resizable=0;points=[];autosize=1;strokeColor=none;fillColor=none;" vertex="1" parent="1">
          <mxGeometry x="70" y="440" width="30" height="20" as="geometry" />
        </mxCell>
        <mxCell id="ULLz7wTdWmbjTnIx4xGf-34" value="" style="edgeStyle=orthogonalEdgeStyle;rounded=0;orthogonalLoop=1;jettySize=auto;html=1;" edge="1" parent="1" source="ULLz7wTdWmbjTnIx4xGf-32" target="ULLz7wTdWmbjTnIx4xGf-2">
          <mxGeometry relative="1" as="geometry" />
        </mxCell>
        <mxCell id="ULLz7wTdWmbjTnIx4xGf-32" value="Generate a word" style="rounded=0;whiteSpace=wrap;html=1;" vertex="1" parent="1">
          <mxGeometry x="290" y="-10" width="120" height="60" as="geometry" />
        </mxCell>
      </root>
    </mxGraphModel>
  </diagram>
</mxfile>
